<svg xmlns="http://www.w3.org/2000/svg" version="1.1" xmlns:xlink="http://www.w3.org/1999/xlink"
  xmlns:svgjs="http://svgjs.dev/svgjs" width="1440" height="560" preserveAspectRatio="none" viewBox="0 0 1440 560">
  <g mask="url(&quot;#SvgjsMask1049&quot;)" fill="none">
    <rect width="1440" height="560" x="0" y="0" fill="#0e2a47"></rect>
    <path d="M-61.13 410.15L-61.13 410.15" stroke="#132e65" stroke-width="1.5"></path>
    <path d="M-61.13 410.15L-61.75 529.09" stroke="#132e65" stroke-width="1.5"></path>
    <path d="M-61.13 410.15L53.67 373.63" stroke="#132e65" stroke-width="1.5"></path>
    <path d="M-61.13 410.15L37.66 519.17" stroke="#132e65" stroke-width="1.5"></path>
    <path d="M-61.13 410.15L-89.66 658.81" stroke="#132e65" stroke-width="1.5"></path>
    <path d="M-61.13 410.15L228.95 490.86" stroke="#132e65" stroke-width="1.5"></path>
    <path d="M-61.13 410.15L241.01 362.7" stroke="#132e65" stroke-width="1.5"></path>
    <path d="M-61.75 529.09L-61.75 529.09" stroke="#132e65" stroke-width="1.5"></path>
    <path d="M-61.75 529.09L37.66 519.17" stroke="#132e65" stroke-width="1.5"></path>
    <path d="M-89.66 658.81L-89.66 658.81" stroke="#132e65" stroke-width="1.5"></path>
    <path d="M-89.66 658.81L-61.75 529.09" stroke="#132e65" stroke-width="1.5"></path>
    <path d="M-89.66 658.81L76.31 700.63" stroke="#132e65" stroke-width="1.5"></path>
    <path d="M-89.66 658.81L37.66 519.17" stroke="#132e65" stroke-width="1.5"></path>
    <path d="M53.67 373.63L53.67 373.63" stroke="#132e65" stroke-width="1.5"></path>
    <path d="M53.67 373.63L37.66 519.17" stroke="#132e65" stroke-width="1.5"></path>
    <path d="M53.67 373.63L241.01 362.7" stroke="#132e65" stroke-width="1.5"></path>
    <path d="M37.66 519.17L37.66 519.17" stroke="#132e65" stroke-width="1.5"></path>
    <path d="M37.66 519.17L76.31 700.63" stroke="#132e65" stroke-width="1.5"></path>
    <path d="M76.31 700.63L76.31 700.63" stroke="#132e65" stroke-width="1.5"></path>
    <path d="M76.31 700.63L189.69 711.69" stroke="#132e65" stroke-width="1.5"></path>
    <path d="M241.01 362.7L241.01 362.7" stroke="#132e65" stroke-width="1.5"></path>
    <path d="M241.01 362.7L228.95 490.86" stroke="#132e65" stroke-width="1.5"></path>
    <path d="M241.01 362.7L403.55 402.83" stroke="#132e65" stroke-width="1.5"></path>
    <path d="M241.01 362.7L37.66 519.17" stroke="#132e65" stroke-width="1.5"></path>
    <path d="M228.95 490.86L228.95 490.86" stroke="#132e65" stroke-width="1.5"></path>
    <path d="M228.95 490.86L37.66 519.17" stroke="#132e65" stroke-width="1.5"></path>
    <path d="M228.95 490.86L403.55 402.83" stroke="#132e65" stroke-width="1.5"></path>
    <path d="M189.69 711.69L189.69 711.69" stroke="#132e65" stroke-width="1.5"></path>
    <path d="M189.69 711.69L396.56 693.55" stroke="#132e65" stroke-width="1.5"></path>
    <path d="M189.69 711.69L228.95 490.86" stroke="#132e65" stroke-width="1.5"></path>
    <path d="M189.69 711.69L37.66 519.17" stroke="#132e65" stroke-width="1.5"></path>
    <path d="M189.69 711.69L-89.66 658.81" stroke="#132e65" stroke-width="1.5"></path>
    <path d="M189.69 711.69L-61.75 529.09" stroke="#132e65" stroke-width="1.5"></path>
    <path d="M403.55 402.83L403.55 402.83" stroke="#132e65" stroke-width="1.5"></path>
    <path d="M403.55 402.83L511.94 493.58" stroke="#132e65" stroke-width="1.5"></path>
    <path d="M403.55 402.83L562.1 352.33" stroke="#132e65" stroke-width="1.5"></path>
    <path d="M396.56 693.55L396.56 693.55" stroke="#132e65" stroke-width="1.5"></path>
    <path d="M396.56 693.55L554.61 657.95" stroke="#132e65" stroke-width="1.5"></path>
    <path d="M396.56 693.55L511.94 493.58" stroke="#132e65" stroke-width="1.5"></path>
    <path d="M396.56 693.55L228.95 490.86" stroke="#132e65" stroke-width="1.5"></path>
    <path d="M396.56 693.55L659.5 686.28" stroke="#132e65" stroke-width="1.5"></path>
    <path d="M562.1 352.33L562.1 352.33" stroke="#132e65" stroke-width="1.5"></path>
    <path d="M562.1 352.33L656.74 352" stroke="#132e65" stroke-width="1.5"></path>
    <path d="M562.1 352.33L511.94 493.58" stroke="#132e65" stroke-width="1.5"></path>
    <path d="M562.1 352.33L678.7 224.35" stroke="#132e65" stroke-width="1.5"></path>
    <path d="M562.1 352.33L654.04 541.49" stroke="#132e65" stroke-width="1.5"></path>
    <path d="M562.1 352.33L796.24 233.04" stroke="#132e65" stroke-width="1.5"></path>
    <path d="M511.94 493.58L511.94 493.58" stroke="#132e65" stroke-width="1.5"></path>
    <path d="M511.94 493.58L654.04 541.49" stroke="#132e65" stroke-width="1.5"></path>
    <path d="M511.94 493.58L554.61 657.95" stroke="#132e65" stroke-width="1.5"></path>
    <path d="M511.94 493.58L656.74 352" stroke="#132e65" stroke-width="1.5"></path>
    <path d="M554.61 657.95L554.61 657.95" stroke="#132e65" stroke-width="1.5"></path>
    <path d="M554.61 657.95L659.5 686.28" stroke="#132e65" stroke-width="1.5"></path>
    <path d="M554.61 657.95L654.04 541.49" stroke="#132e65" stroke-width="1.5"></path>
    <path d="M554.61 657.95L823.4 698.52" stroke="#132e65" stroke-width="1.5"></path>
    <path d="M554.61 657.95L403.55 402.83" stroke="#132e65" stroke-width="1.5"></path>
    <path d="M678.7 224.35L678.7 224.35" stroke="#132e65" stroke-width="1.5"></path>
    <path d="M678.7 224.35L796.24 233.04" stroke="#132e65" stroke-width="1.5"></path>
    <path d="M678.7 224.35L656.74 352" stroke="#132e65" stroke-width="1.5"></path>
    <path d="M678.7 224.35L826.54 409.62" stroke="#132e65" stroke-width="1.5"></path>
    <path d="M656.74 352L656.74 352" stroke="#132e65" stroke-width="1.5"></path>
    <path d="M656.74 352L826.54 409.62" stroke="#132e65" stroke-width="1.5"></path>
    <path d="M656.74 352L796.24 233.04" stroke="#132e65" stroke-width="1.5"></path>
    <path d="M654.04 541.49L654.04 541.49" stroke="#132e65" stroke-width="1.5"></path>
    <path d="M654.04 541.49L659.5 686.28" stroke="#132e65" stroke-width="1.5"></path>
    <path d="M654.04 541.49L825.81 511.51" stroke="#132e65" stroke-width="1.5"></path>
    <path d="M654.04 541.49L656.74 352" stroke="#132e65" stroke-width="1.5"></path>
    <path d="M659.5 686.28L659.5 686.28" stroke="#132e65" stroke-width="1.5"></path>
    <path d="M659.5 686.28L823.4 698.52" stroke="#132e65" stroke-width="1.5"></path>
    <path d="M659.5 686.28L825.81 511.51" stroke="#132e65" stroke-width="1.5"></path>
    <path d="M659.5 686.28L511.94 493.58" stroke="#132e65" stroke-width="1.5"></path>
    <path d="M796.24 233.04L796.24 233.04" stroke="#132e65" stroke-width="1.5"></path>
    <path d="M796.24 233.04L969.38 222.62" stroke="#132e65" stroke-width="1.5"></path>
    <path d="M826.54 409.62L826.54 409.62" stroke="#132e65" stroke-width="1.5"></path>
    <path d="M826.54 409.62L825.81 511.51" stroke="#132e65" stroke-width="1.5"></path>
    <path d="M826.54 409.62L968.67 390.42" stroke="#132e65" stroke-width="1.5"></path>
    <path d="M826.54 409.62L796.24 233.04" stroke="#132e65" stroke-width="1.5"></path>
    <path d="M826.54 409.62L654.04 541.49" stroke="#132e65" stroke-width="1.5"></path>
    <path d="M826.54 409.62L1002.28 557.62" stroke="#132e65" stroke-width="1.5"></path>
    <path d="M825.81 511.51L825.81 511.51" stroke="#132e65" stroke-width="1.5"></path>
    <path d="M825.81 511.51L1002.28 557.62" stroke="#132e65" stroke-width="1.5"></path>
    <path d="M825.81 511.51L823.4 698.52" stroke="#132e65" stroke-width="1.5"></path>
    <path d="M825.81 511.51L968.67 390.42" stroke="#132e65" stroke-width="1.5"></path>
    <path d="M823.4 698.52L823.4 698.52" stroke="#132e65" stroke-width="1.5"></path>
    <path d="M823.4 698.52L952.19 659.26" stroke="#132e65" stroke-width="1.5"></path>
    <path d="M973.19 -43.98L973.19 -43.98" stroke="#132e65" stroke-width="1.5"></path>
    <path d="M973.19 -43.98L980.08 75.29" stroke="#132e65" stroke-width="1.5"></path>
    <path d="M973.19 -43.98L1087.87 53.62" stroke="#132e65" stroke-width="1.5"></path>
    <path d="M973.19 -43.98L1133.7 -101.1" stroke="#132e65" stroke-width="1.5"></path>
    <path d="M973.19 -43.98L969.38 222.62" stroke="#132e65" stroke-width="1.5"></path>
    <path d="M980.08 75.29L980.08 75.29" stroke="#132e65" stroke-width="1.5"></path>
    <path d="M980.08 75.29L1087.87 53.62" stroke="#132e65" stroke-width="1.5"></path>
    <path d="M980.08 75.29L969.38 222.62" stroke="#132e65" stroke-width="1.5"></path>
    <path d="M980.08 75.29L1133.7 -101.1" stroke="#132e65" stroke-width="1.5"></path>
    <path d="M980.08 75.29L1143.76 252.02" stroke="#132e65" stroke-width="1.5"></path>
    <path d="M980.08 75.29L796.24 233.04" stroke="#132e65" stroke-width="1.5"></path>
    <path d="M969.38 222.62L969.38 222.62" stroke="#132e65" stroke-width="1.5"></path>
    <path d="M969.38 222.62L968.67 390.42" stroke="#132e65" stroke-width="1.5"></path>
    <path d="M969.38 222.62L1143.76 252.02" stroke="#132e65" stroke-width="1.5"></path>
    <path d="M969.38 222.62L1087.87 53.62" stroke="#132e65" stroke-width="1.5"></path>
    <path d="M969.38 222.62L1090.76 407.65" stroke="#132e65" stroke-width="1.5"></path>
    <path d="M968.67 390.42L968.67 390.42" stroke="#132e65" stroke-width="1.5"></path>
    <path d="M968.67 390.42L1090.76 407.65" stroke="#132e65" stroke-width="1.5"></path>
    <path d="M1002.28 557.62L1002.28 557.62" stroke="#132e65" stroke-width="1.5"></path>
    <path d="M1002.28 557.62L952.19 659.26" stroke="#132e65" stroke-width="1.5"></path>
    <path d="M1002.28 557.62L1105 649.3" stroke="#132e65" stroke-width="1.5"></path>
    <path d="M1002.28 557.62L1155.37 524.61" stroke="#132e65" stroke-width="1.5"></path>
    <path d="M1002.28 557.62L968.67 390.42" stroke="#132e65" stroke-width="1.5"></path>
    <path d="M1002.28 557.62L1090.76 407.65" stroke="#132e65" stroke-width="1.5"></path>
    <path d="M952.19 659.26L952.19 659.26" stroke="#132e65" stroke-width="1.5"></path>
    <path d="M1133.7 -101.1L1133.7 -101.1" stroke="#132e65" stroke-width="1.5"></path>
    <path d="M1133.7 -101.1L1087.87 53.62" stroke="#132e65" stroke-width="1.5"></path>
    <path d="M1133.7 -101.1L1298.67 97.34" stroke="#132e65" stroke-width="1.5"></path>
    <path d="M1133.7 -101.1L1439.14 -41.46" stroke="#132e65" stroke-width="1.5"></path>
    <path d="M1087.87 53.62L1087.87 53.62" stroke="#132e65" stroke-width="1.5"></path>
    <path d="M1087.87 53.62L1143.76 252.02" stroke="#132e65" stroke-width="1.5"></path>
    <path d="M1143.76 252.02L1143.76 252.02" stroke="#132e65" stroke-width="1.5"></path>
    <path d="M1143.76 252.02L1265.97 221.41" stroke="#132e65" stroke-width="1.5"></path>
    <path d="M1143.76 252.02L1090.76 407.65" stroke="#132e65" stroke-width="1.5"></path>
    <path d="M1143.76 252.02L1290.1 370.09" stroke="#132e65" stroke-width="1.5"></path>
    <path d="M1090.76 407.65L1090.76 407.65" stroke="#132e65" stroke-width="1.5"></path>
    <path d="M1090.76 407.65L1155.37 524.61" stroke="#132e65" stroke-width="1.5"></path>
    <path d="M1155.37 524.61L1155.37 524.61" stroke="#132e65" stroke-width="1.5"></path>
    <path d="M1155.37 524.61L1239.02 529.96" stroke="#132e65" stroke-width="1.5"></path>
    <path d="M1105 649.3L1105 649.3" stroke="#132e65" stroke-width="1.5"></path>
    <path d="M1105 649.3L1155.37 524.61" stroke="#132e65" stroke-width="1.5"></path>
    <path d="M1105 649.3L952.19 659.26" stroke="#132e65" stroke-width="1.5"></path>
    <path d="M1298.67 97.34L1298.67 97.34" stroke="#132e65" stroke-width="1.5"></path>
    <path d="M1298.67 97.34L1265.97 221.41" stroke="#132e65" stroke-width="1.5"></path>
    <path d="M1298.67 97.34L1442.23 65.52" stroke="#132e65" stroke-width="1.5"></path>
    <path d="M1298.67 97.34L1439.14 -41.46" stroke="#132e65" stroke-width="1.5"></path>
    <path d="M1298.67 97.34L1455.27 232.02" stroke="#132e65" stroke-width="1.5"></path>
    <path d="M1265.97 221.41L1265.97 221.41" stroke="#132e65" stroke-width="1.5"></path>
    <path d="M1265.97 221.41L1290.1 370.09" stroke="#132e65" stroke-width="1.5"></path>
    <path d="M1265.97 221.41L1455.27 232.02" stroke="#132e65" stroke-width="1.5"></path>
    <path d="M1290.1 370.09L1290.1 370.09" stroke="#132e65" stroke-width="1.5"></path>
    <path d="M1290.1 370.09L1414.98 391.43" stroke="#132e65" stroke-width="1.5"></path>
    <path d="M1290.1 370.09L1406.61 488.74" stroke="#132e65" stroke-width="1.5"></path>
    <path d="M1290.1 370.09L1239.02 529.96" stroke="#132e65" stroke-width="1.5"></path>
    <path d="M1290.1 370.09L1090.76 407.65" stroke="#132e65" stroke-width="1.5"></path>
    <path d="M1239.02 529.96L1239.02 529.96" stroke="#132e65" stroke-width="1.5"></path>
    <path d="M1239.02 529.96L1290.14 690.47" stroke="#132e65" stroke-width="1.5"></path>
    <path d="M1290.14 690.47L1290.14 690.47" stroke="#132e65" stroke-width="1.5"></path>
    <path d="M1290.14 690.47L1404.41 702.54" stroke="#132e65" stroke-width="1.5"></path>
    <path d="M1439.14 -41.46L1439.14 -41.46" stroke="#132e65" stroke-width="1.5"></path>
    <path d="M1439.14 -41.46L1442.23 65.52" stroke="#132e65" stroke-width="1.5"></path>
    <path d="M1439.14 -41.46L1537.62 55.98" stroke="#132e65" stroke-width="1.5"></path>
    <path d="M1442.23 65.52L1442.23 65.52" stroke="#132e65" stroke-width="1.5"></path>
    <path d="M1442.23 65.52L1537.62 55.98" stroke="#132e65" stroke-width="1.5"></path>
    <path d="M1442.23 65.52L1455.27 232.02" stroke="#132e65" stroke-width="1.5"></path>
    <path d="M1442.23 65.52L1593.47 200.15" stroke="#132e65" stroke-width="1.5"></path>
    <path d="M1442.23 65.52L1598.21 -92.66" stroke="#132e65" stroke-width="1.5"></path>
    <path d="M1455.27 232.02L1455.27 232.02" stroke="#132e65" stroke-width="1.5"></path>
    <path d="M1455.27 232.02L1593.47 200.15" stroke="#132e65" stroke-width="1.5"></path>
    <path d="M1455.27 232.02L1414.98 391.43" stroke="#132e65" stroke-width="1.5"></path>
    <path d="M1414.98 391.43L1414.98 391.43" stroke="#132e65" stroke-width="1.5"></path>
    <path d="M1414.98 391.43L1406.61 488.74" stroke="#132e65" stroke-width="1.5"></path>
    <path d="M1414.98 391.43L1605.26 371.86" stroke="#132e65" stroke-width="1.5"></path>
    <path d="M1414.98 391.43L1239.02 529.96" stroke="#132e65" stroke-width="1.5"></path>
    <path d="M1414.98 391.43L1265.97 221.41" stroke="#132e65" stroke-width="1.5"></path>
    <path d="M1406.61 488.74L1406.61 488.74" stroke="#132e65" stroke-width="1.5"></path>
    <path d="M1404.41 702.54L1404.41 702.54" stroke="#132e65" stroke-width="1.5"></path>
    <path d="M1404.41 702.54L1572.92 693.65" stroke="#132e65" stroke-width="1.5"></path>
    <path d="M1404.41 702.54L1406.61 488.74" stroke="#132e65" stroke-width="1.5"></path>
    <path d="M1404.41 702.54L1581.3 554.34" stroke="#132e65" stroke-width="1.5"></path>
    <path d="M1404.41 702.54L1239.02 529.96" stroke="#132e65" stroke-width="1.5"></path>
    <path d="M1404.41 702.54L1105 649.3" stroke="#132e65" stroke-width="1.5"></path>
    <path d="M1598.21 -92.66L1598.21 -92.66" stroke="#132e65" stroke-width="1.5"></path>
    <path d="M1598.21 -92.66L1537.62 55.98" stroke="#132e65" stroke-width="1.5"></path>
    <path d="M1598.21 -92.66L1439.14 -41.46" stroke="#132e65" stroke-width="1.5"></path>
    <path d="M1598.21 -92.66L1593.47 200.15" stroke="#132e65" stroke-width="1.5"></path>
    <path d="M1598.21 -92.66L1298.67 97.34" stroke="#132e65" stroke-width="1.5"></path>
    <path d="M1537.62 55.98L1537.62 55.98" stroke="#132e65" stroke-width="1.5"></path>
    <path d="M1537.62 55.98L1593.47 200.15" stroke="#132e65" stroke-width="1.5"></path>
    <path d="M1593.47 200.15L1593.47 200.15" stroke="#132e65" stroke-width="1.5"></path>
    <path d="M1593.47 200.15L1605.26 371.86" stroke="#132e65" stroke-width="1.5"></path>
    <path d="M1605.26 371.86L1605.26 371.86" stroke="#132e65" stroke-width="1.5"></path>
    <path d="M1605.26 371.86L1581.3 554.34" stroke="#132e65" stroke-width="1.5"></path>
    <path d="M1581.3 554.34L1581.3 554.34" stroke="#132e65" stroke-width="1.5"></path>
    <path d="M1581.3 554.34L1572.92 693.65" stroke="#132e65" stroke-width="1.5"></path>
    <path d="M1581.3 554.34L1406.61 488.74" stroke="#132e65" stroke-width="1.5"></path>
    <path d="M1581.3 554.34L1414.98 391.43" stroke="#132e65" stroke-width="1.5"></path>
    <path d="M1572.92 693.65L1572.92 693.65" stroke="#132e65" stroke-width="1.5"></path>
    <circle r="5" cx="-61.13" cy="410.15" fill="#132e65"></circle>
    <circle r="5" cx="-61.75" cy="529.09" fill="#132e65"></circle>
    <circle r="5" cx="-89.66" cy="658.81" fill="#132e65"></circle>
    <circle r="5" cx="53.67" cy="373.63" fill="#132e65"></circle>
    <circle r="5" cx="37.66" cy="519.17" fill="#132e65"></circle>
    <circle r="5" cx="76.31" cy="700.63" fill="#132e65"></circle>
    <circle r="5" cx="241.01" cy="362.7" fill="#132e65"></circle>
    <circle r="5" cx="228.95" cy="490.86" fill="#132e65"></circle>
    <circle r="5" cx="189.69" cy="711.69" fill="#132e65"></circle>
    <circle r="5" cx="403.55" cy="402.83" fill="#132e65"></circle>
    <circle r="5" cx="396.56" cy="693.55" fill="#132e65"></circle>
    <circle r="5" cx="562.1" cy="352.33" fill="#132e65"></circle>
    <circle r="5" cx="511.94" cy="493.58" fill="#132e65"></circle>
    <circle r="5" cx="554.61" cy="657.95" fill="#132e65"></circle>
    <circle r="5" cx="678.7" cy="224.35" fill="#132e65"></circle>
    <circle r="5" cx="656.74" cy="352" fill="#132e65"></circle>
    <circle r="5" cx="654.04" cy="541.49" fill="#132e65"></circle>
    <circle r="5" cx="659.5" cy="686.28" fill="#132e65"></circle>
    <circle r="5" cx="796.24" cy="233.04" fill="#132e65"></circle>
    <circle r="5" cx="826.54" cy="409.62" fill="#132e65"></circle>
    <circle r="5" cx="825.81" cy="511.51" fill="#132e65"></circle>
    <circle r="5" cx="823.4" cy="698.52" fill="#132e65"></circle>
    <circle r="5" cx="973.19" cy="-43.98" fill="#132e65"></circle>
    <circle r="5" cx="980.08" cy="75.29" fill="#132e65"></circle>
    <circle r="5" cx="969.38" cy="222.62" fill="#132e65"></circle>
    <circle r="5" cx="968.67" cy="390.42" fill="#132e65"></circle>
    <circle r="5" cx="1002.28" cy="557.62" fill="#132e65"></circle>
    <circle r="5" cx="952.19" cy="659.26" fill="#132e65"></circle>
    <circle r="5" cx="1133.7" cy="-101.1" fill="#132e65"></circle>
    <circle r="5" cx="1087.87" cy="53.62" fill="#132e65"></circle>
    <circle r="5" cx="1143.76" cy="252.02" fill="#132e65"></circle>
    <circle r="5" cx="1090.76" cy="407.65" fill="#132e65"></circle>
    <circle r="5" cx="1155.37" cy="524.61" fill="#132e65"></circle>
    <circle r="5" cx="1105" cy="649.3" fill="#132e65"></circle>
    <circle r="5" cx="1298.67" cy="97.34" fill="#132e65"></circle>
    <circle r="5" cx="1265.97" cy="221.41" fill="#132e65"></circle>
    <circle r="5" cx="1290.1" cy="370.09" fill="#132e65"></circle>
    <circle r="5" cx="1239.02" cy="529.96" fill="#132e65"></circle>
    <circle r="5" cx="1290.14" cy="690.47" fill="#132e65"></circle>
    <circle r="5" cx="1439.14" cy="-41.46" fill="#132e65"></circle>
    <circle r="5" cx="1442.23" cy="65.52" fill="#132e65"></circle>
    <circle r="5" cx="1455.27" cy="232.02" fill="#132e65"></circle>
    <circle r="5" cx="1414.98" cy="391.43" fill="#132e65"></circle>
    <circle r="5" cx="1406.61" cy="488.74" fill="#132e65"></circle>
    <circle r="5" cx="1404.41" cy="702.54" fill="#132e65"></circle>
    <circle r="5" cx="1598.21" cy="-92.66" fill="#132e65"></circle>
    <circle r="5" cx="1537.62" cy="55.98" fill="#132e65"></circle>
    <circle r="5" cx="1593.47" cy="200.15" fill="#132e65"></circle>
    <circle r="5" cx="1605.26" cy="371.86" fill="#132e65"></circle>
    <circle r="5" cx="1581.3" cy="554.34" fill="#132e65"></circle>
    <circle r="5" cx="1572.92" cy="693.65" fill="#132e65"></circle>
    <path d="M-80.77 661.3L-80.77 661.3" stroke="hsl(228.5, 77.2%, 51.5%)" stroke-width="1.5"></path>
    <path d="M-80.77 661.3L-94.95 531.81" stroke="hsl(228.5, 77.2%, 51.5%)" stroke-width="1.5"></path>
    <path d="M-80.77 661.3L60.37 705.95" stroke="hsl(228.5, 77.2%, 51.5%)" stroke-width="1.5"></path>
    <path d="M-80.77 661.3L85.78 552.15" stroke="hsl(228.5, 77.2%, 51.5%)" stroke-width="1.5"></path>
    <path d="M-80.77 661.3L188.55 653.07" stroke="hsl(228.5, 77.2%, 51.5%)" stroke-width="1.5"></path>
    <path d="M-80.77 661.3L228.92 505.22" stroke="hsl(228.5, 77.2%, 51.5%)" stroke-width="1.5"></path>
    <path d="M-80.77 661.3L366.68 677.59" stroke="hsl(228.5, 77.2%, 51.5%)" stroke-width="1.5"></path>
    <path d="M801.41 379.07L801.41 379.07" stroke="hsl(228.5, 77.2%, 51.5%)" stroke-width="1.5"></path>
    <path d="M801.41 379.07L708.28 380.08" stroke="hsl(228.5, 77.2%, 51.5%)" stroke-width="1.5"></path>
    <path d="M801.41 379.07L799.72 501.28" stroke="hsl(228.5, 77.2%, 51.5%)" stroke-width="1.5"></path>
    <path d="M801.41 379.07L947.86 491.06" stroke="hsl(228.5, 77.2%, 51.5%)" stroke-width="1.5"></path>
    <path d="M801.41 379.07L1003.61 404.5" stroke="hsl(228.5, 77.2%, 51.5%)" stroke-width="1.5"></path>
    <path d="M801.41 379.07L963.07 247.1" stroke="hsl(228.5, 77.2%, 51.5%)" stroke-width="1.5"></path>
    <path d="M947.86 491.06L947.86 491.06" stroke="hsl(228.5, 77.2%, 51.5%)" stroke-width="1.5"></path>
    <path d="M947.86 491.06L1003.61 404.5" stroke="hsl(228.5, 77.2%, 51.5%)" stroke-width="1.5"></path>
    <path d="M947.86 491.06L799.72 501.28" stroke="hsl(228.5, 77.2%, 51.5%)" stroke-width="1.5"></path>
    <path d="M947.86 491.06L1097.77 505.78" stroke="hsl(228.5, 77.2%, 51.5%)" stroke-width="1.5"></path>
    <path d="M1138.47 227.7L1138.47 227.7" stroke="hsl(228.5, 77.2%, 51.5%)" stroke-width="1.5"></path>
    <path d="M1138.47 227.7L1127.57 361.25" stroke="hsl(228.5, 77.2%, 51.5%)" stroke-width="1.5"></path>
    <path d="M1138.47 227.7L1301.01 235.15" stroke="hsl(228.5, 77.2%, 51.5%)" stroke-width="1.5"></path>
    <path d="M1138.47 227.7L963.07 247.1" stroke="hsl(228.5, 77.2%, 51.5%)" stroke-width="1.5"></path>
    <path d="M1138.47 227.7L1266.51 352.37" stroke="hsl(228.5, 77.2%, 51.5%)" stroke-width="1.5"></path>
    <path d="M1256.42 -64L1256.42 -64" stroke="hsl(228.5, 77.2%, 51.5%)" stroke-width="1.5"></path>
    <path d="M1256.42 -64L1281.53 64.45" stroke="hsl(228.5, 77.2%, 51.5%)" stroke-width="1.5"></path>
    <path d="M1256.42 -64L1399.02 -89.63" stroke="hsl(228.5, 77.2%, 51.5%)" stroke-width="1.5"></path>
    <path d="M1256.42 -64L1406.07 93.43" stroke="hsl(228.5, 77.2%, 51.5%)" stroke-width="1.5"></path>
    <path d="M1406.07 93.43L1406.07 93.43" stroke="hsl(228.5, 77.2%, 51.5%)" stroke-width="1.5"></path>
    <path d="M1406.07 93.43L1281.53 64.45" stroke="hsl(228.5, 77.2%, 51.5%)" stroke-width="1.5"></path>
    <path d="M1406.07 93.43L1301.01 235.15" stroke="hsl(228.5, 77.2%, 51.5%)" stroke-width="1.5"></path>
    <path d="M1406.07 93.43L1399.02 -89.63" stroke="hsl(228.5, 77.2%, 51.5%)" stroke-width="1.5"></path>
    <path d="M1406.07 93.43L1605.46 69.67" stroke="hsl(228.5, 77.2%, 51.5%)" stroke-width="1.5"></path>
    <path d="M1406.07 93.43L1540.96 -81.73" stroke="hsl(228.5, 77.2%, 51.5%)" stroke-width="1.5"></path>
    <path d="M1540.96 -81.73L1540.96 -81.73" stroke="hsl(228.5, 77.2%, 51.5%)" stroke-width="1.5"></path>
    <path d="M1540.96 -81.73L1399.02 -89.63" stroke="hsl(228.5, 77.2%, 51.5%)" stroke-width="1.5"></path>
    <path d="M1540.96 -81.73L1605.46 69.67" stroke="hsl(228.5, 77.2%, 51.5%)" stroke-width="1.5"></path>
    <path d="M1540.96 -81.73L1256.42 -64" stroke="hsl(228.5, 77.2%, 51.5%)" stroke-width="1.5"></path>
    <path d="M1540.96 -81.73L1281.53 64.45" stroke="hsl(228.5, 77.2%, 51.5%)" stroke-width="1.5"></path>
    <path d="M1558.73 642.24L1558.73 642.24" stroke="hsl(228.5, 77.2%, 51.5%)" stroke-width="1.5"></path>
    <path d="M1558.73 642.24L1439.02 643.79" stroke="hsl(228.5, 77.2%, 51.5%)" stroke-width="1.5"></path>
    <path d="M1558.73 642.24L1441.31 555.45" stroke="hsl(228.5, 77.2%, 51.5%)" stroke-width="1.5"></path>
    <path d="M1558.73 642.24L1596.5 497.62" stroke="hsl(228.5, 77.2%, 51.5%)" stroke-width="1.5"></path>
    <path d="M1558.73 642.24L1278.79 665.07" stroke="hsl(228.5, 77.2%, 51.5%)" stroke-width="1.5"></path>
    <path d="M1558.73 642.24L1588.08 360.03" stroke="hsl(228.5, 77.2%, 51.5%)" stroke-width="1.5"></path>
    <path d="M1558.73 642.24L1394.46 409.72" stroke="hsl(228.5, 77.2%, 51.5%)" stroke-width="1.5"></path>
    <path d="M-94.95 531.81L-94.95 531.81" stroke="hsl(228.5, 77.2%, 51.5%)" stroke-width="1.5"></path>
    <path d="M-94.95 531.81L85.78 552.15" stroke="hsl(228.5, 77.2%, 51.5%)" stroke-width="1.5"></path>
    <path d="M-94.95 531.81L60.37 705.95" stroke="hsl(228.5, 77.2%, 51.5%)" stroke-width="1.5"></path>
    <path d="M85.78 552.15L85.78 552.15" stroke="hsl(228.5, 77.2%, 51.5%)" stroke-width="1.5"></path>
    <path d="M85.78 552.15L188.55 653.07" stroke="hsl(228.5, 77.2%, 51.5%)" stroke-width="1.5"></path>
    <path d="M85.78 552.15L228.92 505.22" stroke="hsl(228.5, 77.2%, 51.5%)" stroke-width="1.5"></path>
    <path d="M85.78 552.15L60.37 705.95" stroke="hsl(228.5, 77.2%, 51.5%)" stroke-width="1.5"></path>
    <path d="M60.37 705.95L60.37 705.95" stroke="hsl(228.5, 77.2%, 51.5%)" stroke-width="1.5"></path>
    <path d="M60.37 705.95L188.55 653.07" stroke="hsl(228.5, 77.2%, 51.5%)" stroke-width="1.5"></path>
    <path d="M228.92 505.22L228.92 505.22" stroke="hsl(228.5, 77.2%, 51.5%)" stroke-width="1.5"></path>
    <path d="M228.92 505.22L188.55 653.07" stroke="hsl(228.5, 77.2%, 51.5%)" stroke-width="1.5"></path>
    <path d="M228.92 505.22L411.6 541.7" stroke="hsl(228.5, 77.2%, 51.5%)" stroke-width="1.5"></path>
    <path d="M228.92 505.22L366.68 677.59" stroke="hsl(228.5, 77.2%, 51.5%)" stroke-width="1.5"></path>
    <path d="M228.92 505.22L60.37 705.95" stroke="hsl(228.5, 77.2%, 51.5%)" stroke-width="1.5"></path>
    <path d="M188.55 653.07L188.55 653.07" stroke="hsl(228.5, 77.2%, 51.5%)" stroke-width="1.5"></path>
    <path d="M411.6 541.7L411.6 541.7" stroke="hsl(228.5, 77.2%, 51.5%)" stroke-width="1.5"></path>
    <path d="M411.6 541.7L494.22 493.73" stroke="hsl(228.5, 77.2%, 51.5%)" stroke-width="1.5"></path>
    <path d="M411.6 541.7L366.68 677.59" stroke="hsl(228.5, 77.2%, 51.5%)" stroke-width="1.5"></path>
    <path d="M366.68 677.59L366.68 677.59" stroke="hsl(228.5, 77.2%, 51.5%)" stroke-width="1.5"></path>
    <path d="M519.7 401.14L519.7 401.14" stroke="hsl(228.5, 77.2%, 51.5%)" stroke-width="1.5"></path>
    <path d="M519.7 401.14L494.22 493.73" stroke="hsl(228.5, 77.2%, 51.5%)" stroke-width="1.5"></path>
    <path d="M519.7 401.14L411.6 541.7" stroke="hsl(228.5, 77.2%, 51.5%)" stroke-width="1.5"></path>
    <path d="M519.7 401.14L708.28 380.08" stroke="hsl(228.5, 77.2%, 51.5%)" stroke-width="1.5"></path>
    <path d="M519.7 401.14L651.63 556.84" stroke="hsl(228.5, 77.2%, 51.5%)" stroke-width="1.5"></path>
    <path d="M519.7 401.14L542.86 667.51" stroke="hsl(228.5, 77.2%, 51.5%)" stroke-width="1.5"></path>
    <path d="M519.7 401.14L801.41 379.07" stroke="hsl(228.5, 77.2%, 51.5%)" stroke-width="1.5"></path>
    <path d="M494.22 493.73L494.22 493.73" stroke="hsl(228.5, 77.2%, 51.5%)" stroke-width="1.5"></path>
    <path d="M494.22 493.73L651.63 556.84" stroke="hsl(228.5, 77.2%, 51.5%)" stroke-width="1.5"></path>
    <path d="M542.86 667.51L542.86 667.51" stroke="hsl(228.5, 77.2%, 51.5%)" stroke-width="1.5"></path>
    <path d="M542.86 667.51L660.09 709.41" stroke="hsl(228.5, 77.2%, 51.5%)" stroke-width="1.5"></path>
    <path d="M542.86 667.51L651.63 556.84" stroke="hsl(228.5, 77.2%, 51.5%)" stroke-width="1.5"></path>
    <path d="M542.86 667.51L366.68 677.59" stroke="hsl(228.5, 77.2%, 51.5%)" stroke-width="1.5"></path>
    <path d="M542.86 667.51L494.22 493.73" stroke="hsl(228.5, 77.2%, 51.5%)" stroke-width="1.5"></path>
    <path d="M542.86 667.51L411.6 541.7" stroke="hsl(228.5, 77.2%, 51.5%)" stroke-width="1.5"></path>
    <path d="M708.28 380.08L708.28 380.08" stroke="hsl(228.5, 77.2%, 51.5%)" stroke-width="1.5"></path>
    <path d="M651.63 556.84L651.63 556.84" stroke="hsl(228.5, 77.2%, 51.5%)" stroke-width="1.5"></path>
    <path d="M651.63 556.84L660.09 709.41" stroke="hsl(228.5, 77.2%, 51.5%)" stroke-width="1.5"></path>
    <path d="M651.63 556.84L799.72 501.28" stroke="hsl(228.5, 77.2%, 51.5%)" stroke-width="1.5"></path>
    <path d="M651.63 556.84L708.28 380.08" stroke="hsl(228.5, 77.2%, 51.5%)" stroke-width="1.5"></path>
    <path d="M660.09 709.41L660.09 709.41" stroke="hsl(228.5, 77.2%, 51.5%)" stroke-width="1.5"></path>
    <path d="M660.09 709.41L846.94 710.04" stroke="hsl(228.5, 77.2%, 51.5%)" stroke-width="1.5"></path>
    <path d="M660.09 709.41L799.72 501.28" stroke="hsl(228.5, 77.2%, 51.5%)" stroke-width="1.5"></path>
    <path d="M660.09 709.41L494.22 493.73" stroke="hsl(228.5, 77.2%, 51.5%)" stroke-width="1.5"></path>
    <path d="M660.09 709.41L951.97 692.68" stroke="hsl(228.5, 77.2%, 51.5%)" stroke-width="1.5"></path>
    <path d="M799.72 501.28L799.72 501.28" stroke="hsl(228.5, 77.2%, 51.5%)" stroke-width="1.5"></path>
    <path d="M799.72 501.28L708.28 380.08" stroke="hsl(228.5, 77.2%, 51.5%)" stroke-width="1.5"></path>
    <path d="M846.94 710.04L846.94 710.04" stroke="hsl(228.5, 77.2%, 51.5%)" stroke-width="1.5"></path>
    <path d="M846.94 710.04L951.97 692.68" stroke="hsl(228.5, 77.2%, 51.5%)" stroke-width="1.5"></path>
    <path d="M846.94 710.04L799.72 501.28" stroke="hsl(228.5, 77.2%, 51.5%)" stroke-width="1.5"></path>
    <path d="M846.94 710.04L947.86 491.06" stroke="hsl(228.5, 77.2%, 51.5%)" stroke-width="1.5"></path>
    <path d="M846.94 710.04L651.63 556.84" stroke="hsl(228.5, 77.2%, 51.5%)" stroke-width="1.5"></path>
    <path d="M963.07 247.1L963.07 247.1" stroke="hsl(228.5, 77.2%, 51.5%)" stroke-width="1.5"></path>
    <path d="M963.07 247.1L1003.61 404.5" stroke="hsl(228.5, 77.2%, 51.5%)" stroke-width="1.5"></path>
    <path d="M963.07 247.1L1127.57 361.25" stroke="hsl(228.5, 77.2%, 51.5%)" stroke-width="1.5"></path>
    <path d="M963.07 247.1L947.86 491.06" stroke="hsl(228.5, 77.2%, 51.5%)" stroke-width="1.5"></path>
    <path d="M963.07 247.1L708.28 380.08" stroke="hsl(228.5, 77.2%, 51.5%)" stroke-width="1.5"></path>
    <path d="M1003.61 404.5L1003.61 404.5" stroke="hsl(228.5, 77.2%, 51.5%)" stroke-width="1.5"></path>
    <path d="M1003.61 404.5L1127.57 361.25" stroke="hsl(228.5, 77.2%, 51.5%)" stroke-width="1.5"></path>
    <path d="M1003.61 404.5L1097.77 505.78" stroke="hsl(228.5, 77.2%, 51.5%)" stroke-width="1.5"></path>
    <path d="M951.97 692.68L951.97 692.68" stroke="hsl(228.5, 77.2%, 51.5%)" stroke-width="1.5"></path>
    <path d="M951.97 692.68L1130.32 690.44" stroke="hsl(228.5, 77.2%, 51.5%)" stroke-width="1.5"></path>
    <path d="M951.97 692.68L947.86 491.06" stroke="hsl(228.5, 77.2%, 51.5%)" stroke-width="1.5"></path>
    <path d="M1127.57 361.25L1127.57 361.25" stroke="hsl(228.5, 77.2%, 51.5%)" stroke-width="1.5"></path>
    <path d="M1127.57 361.25L1266.51 352.37" stroke="hsl(228.5, 77.2%, 51.5%)" stroke-width="1.5"></path>
    <path d="M1097.77 505.78L1097.77 505.78" stroke="hsl(228.5, 77.2%, 51.5%)" stroke-width="1.5"></path>
    <path d="M1097.77 505.78L1127.57 361.25" stroke="hsl(228.5, 77.2%, 51.5%)" stroke-width="1.5"></path>
    <path d="M1097.77 505.78L1265.47 542.51" stroke="hsl(228.5, 77.2%, 51.5%)" stroke-width="1.5"></path>
    <path d="M1097.77 505.78L1130.32 690.44" stroke="hsl(228.5, 77.2%, 51.5%)" stroke-width="1.5"></path>
    <path d="M1097.77 505.78L1266.51 352.37" stroke="hsl(228.5, 77.2%, 51.5%)" stroke-width="1.5"></path>
    <path d="M1130.32 690.44L1130.32 690.44" stroke="hsl(228.5, 77.2%, 51.5%)" stroke-width="1.5"></path>
    <path d="M1130.32 690.44L1278.79 665.07" stroke="hsl(228.5, 77.2%, 51.5%)" stroke-width="1.5"></path>
    <path d="M1130.32 690.44L1265.47 542.51" stroke="hsl(228.5, 77.2%, 51.5%)" stroke-width="1.5"></path>
    <path d="M1130.32 690.44L947.86 491.06" stroke="hsl(228.5, 77.2%, 51.5%)" stroke-width="1.5"></path>
    <path d="M1281.53 64.45L1281.53 64.45" stroke="hsl(228.5, 77.2%, 51.5%)" stroke-width="1.5"></path>
    <path d="M1281.53 64.45L1301.01 235.15" stroke="hsl(228.5, 77.2%, 51.5%)" stroke-width="1.5"></path>
    <path d="M1281.53 64.45L1399.02 -89.63" stroke="hsl(228.5, 77.2%, 51.5%)" stroke-width="1.5"></path>
    <path d="M1281.53 64.45L1138.47 227.7" stroke="hsl(228.5, 77.2%, 51.5%)" stroke-width="1.5"></path>
    <path d="M1281.53 64.45L1266.51 352.37" stroke="hsl(228.5, 77.2%, 51.5%)" stroke-width="1.5"></path>
    <path d="M1301.01 235.15L1301.01 235.15" stroke="hsl(228.5, 77.2%, 51.5%)" stroke-width="1.5"></path>
    <path d="M1301.01 235.15L1266.51 352.37" stroke="hsl(228.5, 77.2%, 51.5%)" stroke-width="1.5"></path>
    <path d="M1266.51 352.37L1266.51 352.37" stroke="hsl(228.5, 77.2%, 51.5%)" stroke-width="1.5"></path>
    <path d="M1266.51 352.37L1394.46 409.72" stroke="hsl(228.5, 77.2%, 51.5%)" stroke-width="1.5"></path>
    <path d="M1266.51 352.37L1265.47 542.51" stroke="hsl(228.5, 77.2%, 51.5%)" stroke-width="1.5"></path>
    <path d="M1265.47 542.51L1265.47 542.51" stroke="hsl(228.5, 77.2%, 51.5%)" stroke-width="1.5"></path>
    <path d="M1265.47 542.51L1278.79 665.07" stroke="hsl(228.5, 77.2%, 51.5%)" stroke-width="1.5"></path>
    <path d="M1278.79 665.07L1278.79 665.07" stroke="hsl(228.5, 77.2%, 51.5%)" stroke-width="1.5"></path>
    <path d="M1278.79 665.07L1439.02 643.79" stroke="hsl(228.5, 77.2%, 51.5%)" stroke-width="1.5"></path>
    <path d="M1278.79 665.07L1441.31 555.45" stroke="hsl(228.5, 77.2%, 51.5%)" stroke-width="1.5"></path>
    <path d="M1278.79 665.07L1097.77 505.78" stroke="hsl(228.5, 77.2%, 51.5%)" stroke-width="1.5"></path>
    <path d="M1399.02 -89.63L1399.02 -89.63" stroke="hsl(228.5, 77.2%, 51.5%)" stroke-width="1.5"></path>
    <path d="M1399.02 -89.63L1605.46 69.67" stroke="hsl(228.5, 77.2%, 51.5%)" stroke-width="1.5"></path>
    <path d="M1394.46 409.72L1394.46 409.72" stroke="hsl(228.5, 77.2%, 51.5%)" stroke-width="1.5"></path>
    <path d="M1394.46 409.72L1441.31 555.45" stroke="hsl(228.5, 77.2%, 51.5%)" stroke-width="1.5"></path>
    <path d="M1394.46 409.72L1265.47 542.51" stroke="hsl(228.5, 77.2%, 51.5%)" stroke-width="1.5"></path>
    <path d="M1441.31 555.45L1441.31 555.45" stroke="hsl(228.5, 77.2%, 51.5%)" stroke-width="1.5"></path>
    <path d="M1441.31 555.45L1439.02 643.79" stroke="hsl(228.5, 77.2%, 51.5%)" stroke-width="1.5"></path>
    <path d="M1441.31 555.45L1596.5 497.62" stroke="hsl(228.5, 77.2%, 51.5%)" stroke-width="1.5"></path>
    <path d="M1441.31 555.45L1265.47 542.51" stroke="hsl(228.5, 77.2%, 51.5%)" stroke-width="1.5"></path>
    <path d="M1439.02 643.79L1439.02 643.79" stroke="hsl(228.5, 77.2%, 51.5%)" stroke-width="1.5"></path>
    <path d="M1605.46 69.67L1605.46 69.67" stroke="hsl(228.5, 77.2%, 51.5%)" stroke-width="1.5"></path>
    <path d="M1605.46 69.67L1607.61 237.8" stroke="hsl(228.5, 77.2%, 51.5%)" stroke-width="1.5"></path>
    <path d="M1607.61 237.8L1607.61 237.8" stroke="hsl(228.5, 77.2%, 51.5%)" stroke-width="1.5"></path>
    <path d="M1607.61 237.8L1588.08 360.03" stroke="hsl(228.5, 77.2%, 51.5%)" stroke-width="1.5"></path>
    <path d="M1607.61 237.8L1406.07 93.43" stroke="hsl(228.5, 77.2%, 51.5%)" stroke-width="1.5"></path>
    <path d="M1607.61 237.8L1596.5 497.62" stroke="hsl(228.5, 77.2%, 51.5%)" stroke-width="1.5"></path>
    <path d="M1607.61 237.8L1394.46 409.72" stroke="hsl(228.5, 77.2%, 51.5%)" stroke-width="1.5"></path>
    <path d="M1607.61 237.8L1301.01 235.15" stroke="hsl(228.5, 77.2%, 51.5%)" stroke-width="1.5"></path>
    <path d="M1588.08 360.03L1588.08 360.03" stroke="hsl(228.5, 77.2%, 51.5%)" stroke-width="1.5"></path>
    <path d="M1588.08 360.03L1596.5 497.62" stroke="hsl(228.5, 77.2%, 51.5%)" stroke-width="1.5"></path>
    <path d="M1596.5 497.62L1596.5 497.62" stroke="hsl(228.5, 77.2%, 51.5%)" stroke-width="1.5"></path>
    <circle r="25" cx="-80.77" cy="661.3" fill="url(&quot;#SvgjsRadialGradient1050&quot;)"></circle>
    <circle r="25" cx="801.41" cy="379.07" fill="url(&quot;#SvgjsRadialGradient1050&quot;)"></circle>
    <circle r="25" cx="947.86" cy="491.06" fill="url(&quot;#SvgjsRadialGradient1050&quot;)"></circle>
    <circle r="25" cx="1138.47" cy="227.7" fill="url(&quot;#SvgjsRadialGradient1050&quot;)"></circle>
    <circle r="25" cx="1256.42" cy="-64" fill="url(&quot;#SvgjsRadialGradient1050&quot;)"></circle>
    <circle r="25" cx="1406.07" cy="93.43" fill="url(&quot;#SvgjsRadialGradient1050&quot;)"></circle>
    <circle r="25" cx="1540.96" cy="-81.73" fill="url(&quot;#SvgjsRadialGradient1050&quot;)"></circle>
    <circle r="25" cx="1558.73" cy="642.24" fill="url(&quot;#SvgjsRadialGradient1050&quot;)"></circle>
    <circle r="5" cx="-94.95" cy="531.81" fill="#8b9ad9"></circle>
    <circle r="5" cx="85.78" cy="552.15" fill="#8b9ad9"></circle>
    <circle r="5" cx="60.37" cy="705.95" fill="#8b9ad9"></circle>
    <circle r="5" cx="228.92" cy="505.22" fill="#8b9ad9"></circle>
    <circle r="5" cx="188.55" cy="653.07" fill="#8b9ad9"></circle>
    <circle r="5" cx="411.6" cy="541.7" fill="#8b9ad9"></circle>
    <circle r="5" cx="366.68" cy="677.59" fill="#8b9ad9"></circle>
    <circle r="5" cx="519.7" cy="401.14" fill="#8b9ad9"></circle>
    <circle r="5" cx="494.22" cy="493.73" fill="#8b9ad9"></circle>
    <circle r="5" cx="542.86" cy="667.51" fill="#8b9ad9"></circle>
    <circle r="5" cx="708.28" cy="380.08" fill="#8b9ad9"></circle>
    <circle r="5" cx="651.63" cy="556.84" fill="#8b9ad9"></circle>
    <circle r="5" cx="660.09" cy="709.41" fill="#8b9ad9"></circle>
    <circle r="5" cx="799.72" cy="501.28" fill="#8b9ad9"></circle>
    <circle r="5" cx="846.94" cy="710.04" fill="#8b9ad9"></circle>
    <circle r="5" cx="963.07" cy="247.1" fill="#8b9ad9"></circle>
    <circle r="5" cx="1003.61" cy="404.5" fill="#8b9ad9"></circle>
    <circle r="5" cx="951.97" cy="692.68" fill="#8b9ad9"></circle>
    <circle r="5" cx="1127.57" cy="361.25" fill="#8b9ad9"></circle>
    <circle r="5" cx="1097.77" cy="505.78" fill="#8b9ad9"></circle>
    <circle r="5" cx="1130.32" cy="690.44" fill="#8b9ad9"></circle>
    <circle r="5" cx="1281.53" cy="64.45" fill="#8b9ad9"></circle>
    <circle r="5" cx="1301.01" cy="235.15" fill="#8b9ad9"></circle>
    <circle r="5" cx="1266.51" cy="352.37" fill="#8b9ad9"></circle>
    <circle r="5" cx="1265.47" cy="542.51" fill="#8b9ad9"></circle>
    <circle r="5" cx="1278.79" cy="665.07" fill="#8b9ad9"></circle>
    <circle r="5" cx="1399.02" cy="-89.63" fill="#8b9ad9"></circle>
    <circle r="5" cx="1394.46" cy="409.72" fill="#8b9ad9"></circle>
    <circle r="5" cx="1441.31" cy="555.45" fill="#8b9ad9"></circle>
    <circle r="5" cx="1439.02" cy="643.79" fill="#8b9ad9"></circle>
    <circle r="5" cx="1605.46" cy="69.67" fill="#8b9ad9"></circle>
    <circle r="5" cx="1607.61" cy="237.8" fill="#8b9ad9"></circle>
    <circle r="5" cx="1588.08" cy="360.03" fill="#8b9ad9"></circle>
    <circle r="5" cx="1596.5" cy="497.62" fill="#8b9ad9"></circle>
  </g>
  <defs>
    <mask id="SvgjsMask1049">
      <rect width="1440" height="560" fill="#ffffff"></rect>
    </mask>
    <radialGradient id="SvgjsRadialGradient1050">
      <stop stop-color="#ffffff" offset="0.1"></stop>
      <stop stop-color="#1735b3" offset="0.2"></stop>
      <stop stop-color="rgba(23, 53, 179, 0)" offset="1"></stop>
    </radialGradient>
  </defs>
</svg>